<?xml version="1.0" encoding="iso-8859-1"?>
<!-- Uploaded to: SVG Repo, www.svgrepo.com, Generator: SVG Repo Mixer Tools -->
<svg fill="#000000" height="800px" width="800px" version="1.1" id="Layer_1" xmlns="http://www.w3.org/2000/svg" xmlns:xlink="http://www.w3.org/1999/xlink" 
	 viewBox="0 0 512.001 512.001" xml:space="preserve">
<g>
	<g>
		<path d="M501.502,490.946h-0.137c-5.769,0-10.447,4.677-10.447,10.447s4.678,10.447,10.447,10.447h0.137
			c5.77,0,10.447-4.677,10.447-10.447S507.271,490.946,501.502,490.946z"/>
	</g>
</g>
<g>
	<g>
		<path d="M455.68,180.342c-31.056,0-56.321,25.265-56.321,56.32v134.562c0,4.421,2.683,8.483,6.85,9.963
			c1.184,0.42,2.399,0.626,3.594,0.626c2.987,0,5.861-1.282,7.856-3.696c0.392-0.399,3.247-3.195,6.39-3.26
			c2.07-0.078,4.415,1.219,6.948,3.753c4.08,4.08,10.693,4.08,14.775,0c5.852-5.853,9.852-5.833,15.852,0.063
			c2.155,2.12,5.133,3.199,8.133,2.966c3.013-0.235,5.776-1.761,7.577-4.188c0.386-0.498,2.452-1.663,6.068-1.885
			c4.302-0.266,8.716,0.982,10.747,3.025c2.985,2.999,7.484,3.901,11.391,2.288c3.91-1.614,6.461-5.427,6.461-9.657V236.66
			C512,205.607,486.736,180.342,455.68,180.342z M481.69,354.743c-0.778,0.056-1.541,0.143-2.297,0.244v-24.406
			c0-5.77-4.678-10.447-10.447-10.447s-10.447,4.677-10.447,10.447v23.172c-1.633-0.311-3.27-0.486-4.907-0.486
			c-1.59,0-3.179,0.165-4.763,0.46v-23.145c0-5.77-4.678-10.447-10.447-10.447c-5.769,0-10.447,4.677-10.447,10.447v23.667
			c-1.73-0.255-3.324-0.318-4.733-0.266c-1.013,0.037-1.997,0.131-2.951,0.273V236.662c0-19.534,15.892-35.426,35.427-35.426
			c19.534,0,35.426,15.892,35.426,35.426v118.495C488.071,354.659,484.901,354.512,481.69,354.743z"/>
	</g>
</g>
<g>
	<g>
		<path d="M468.945,286.201c-5.769,0-10.447,4.677-10.447,10.447v0.137c0,5.77,4.678,10.447,10.447,10.447
			c5.769,0,10.447-4.677,10.447-10.447v-0.137C479.392,290.877,474.715,286.201,468.945,286.201z"/>
	</g>
</g>
<g>
	<g>
		<path d="M438.385,286.201c-5.769,0-10.447,4.677-10.447,10.447v0.137c0,5.77,4.678,10.447,10.447,10.447
			c5.769,0,10.447-4.677,10.447-10.447v-0.137C448.832,290.877,444.154,286.201,438.385,286.201z"/>
	</g>
</g>
<g>
	<g>
		<path d="M83.691,312.31h-0.137c-5.769,0-10.447,4.677-10.447,10.447s4.678,10.447,10.447,10.447h0.137
			c5.77,0,10.447-4.677,10.447-10.447S89.459,312.31,83.691,312.31z"/>
	</g>
</g>
<g>
	<g>
		<path d="M83.691,437.668h-0.137c-5.769,0-10.447,4.677-10.447,10.447s4.678,10.447,10.447,10.447h0.137
			c5.77,0,10.447-4.677,10.447-10.447S89.459,437.668,83.691,437.668z"/>
	</g>
</g>
<g>
	<g>
		<path d="M40.868,114.862c-22.47,0-40.75,18.28-40.75,40.75c0,22.47,18.28,40.75,40.75,40.75s40.75-18.28,40.75-40.75
			S63.338,114.862,40.868,114.862z M40.868,175.469c-10.949,0-19.857-8.908-19.857-19.857s8.909-19.857,19.857-19.857
			c10.949,0,19.857,8.908,19.857,19.857S51.817,175.469,40.868,175.469z"/>
	</g>
</g>
<g>
	<g>
		<path d="M104.596,42.059c-16.692,0-30.27,13.579-30.27,30.27s13.578,30.27,30.27,30.27s30.27-13.58,30.27-30.27
			S121.288,42.059,104.596,42.059z M104.596,81.707c-5.171,0-9.377-4.206-9.377-9.377c0-5.171,4.207-9.377,9.377-9.377
			c5.17,0,9.377,4.206,9.377,9.377C113.973,77.501,109.767,81.707,104.596,81.707z"/>
	</g>
</g>
<g>
	<g>
		<path d="M34.515,0.161C15.483,0.161,0,15.645,0,34.676c0,19.032,15.483,34.516,34.516,34.516
			c19.033,0,34.515-15.484,34.515-34.516C69.031,15.645,53.548,0.161,34.515,0.161z M34.515,48.299
			c-7.511,0-13.622-6.111-13.622-13.622c0-7.511,6.111-13.622,13.622-13.622c7.511,0,13.622,6.111,13.622,13.622
			C48.138,42.187,42.027,48.299,34.515,48.299z"/>
	</g>
</g>
<g>
	<g>
		<path d="M294.106,212.024c-6.438,0-11.677,5.238-11.677,11.677c0,6.438,5.239,11.676,11.677,11.676
			c6.438,0,11.676-5.238,11.676-11.676C305.783,217.262,300.545,212.024,294.106,212.024z"/>
	</g>
</g>
<g>
	<g>
		<path d="M217.91,212.024c-6.438,0-11.676,5.238-11.676,11.677c0,6.438,5.238,11.676,11.676,11.676
			c6.438,0,11.677-5.238,11.677-11.676C229.586,217.262,224.348,212.024,217.91,212.024z"/>
	</g>
</g>
<g>
	<g>
		<path d="M467.57,490.947h-57.958v-70.634c0-20.364-12.289-39.704-29.883-47.036l-67.232-28.012
			c-2.39-0.996-3.935-3.313-3.935-5.903v-16.266l27.307-15.657c0.19-0.11,0.377-0.225,0.56-0.346
			c13.672-9.03,22.65-25.087,24.016-42.955c0.021-0.264,0.03-0.531,0.03-0.796v-8.673c13.566-4.413,23.399-17.178,23.399-32.197
			s-9.833-27.785-23.399-32.197v-21.642c0-57.501-46.781-104.282-104.282-104.282c-56.533,0-102.703,45.218-104.242,101.385
			c-0.265,0.919-0.407,1.892-0.407,2.897v21.642c-13.566,4.413-23.399,17.178-23.399,32.197s9.833,27.785,23.399,32.197v8.673
			c0,0.265,0.01,0.532,0.03,0.796c0.273,3.561,0.853,7.043,1.698,10.415h-4.227c-11.521,0-20.893,9.373-20.893,20.897l0.009,21.695
			l-0.002,56.209c0,0.63,0.066,1.243,0.172,1.843c-1.741,0.95-3.425,2.007-5.032,3.184v-77.561
			c0-30.398-22.144-55.707-51.143-60.685V222.47c0-5.77-4.678-10.447-10.447-10.447c-5.769,0-10.447,4.677-10.447,10.447v17.664
			c-29,4.978-51.143,30.287-51.143,60.685v199.564c-0.032,0.332,0,0.652,0,0.993c0,5.77,4.627,10.463,10.395,10.463h0.051h0.086
			h456.919c5.769,0,10.447-4.677,10.447-10.447S473.338,490.947,467.57,490.947z M362.981,222.47c0,3.036-1.057,5.825-2.813,8.037
			c0.197-1.832,0.306-3.692,0.306-5.576c0-4.014-0.476-7.914-1.349-11.666C361.504,215.613,362.981,218.871,362.981,222.47z
			 M151.973,230.671c-1.833-2.234-2.937-5.091-2.937-8.201c0-3.661,1.534-6.965,3.983-9.324c-0.89,3.787-1.375,7.728-1.375,11.784
			C151.645,226.871,151.762,228.784,151.973,230.671z M102.405,420.311v70.635H44.447c0,0-0.006,0-0.01,0H21.011v-32.384h28.747
			c5.769,0,10.447-4.677,10.447-10.447s-4.678-10.447-10.447-10.447H21.011V333.203h28.747c5.769,0,10.447-4.677,10.447-10.447
			s-4.678-10.447-10.447-10.447H21.011v-11.491c0-22.44,18.256-40.697,40.697-40.697c22.44,0,40.697,18.256,40.697,40.697V420.311z
			 M325.165,289.489l-56.088,32.16c-0.19,0.11-0.377,0.225-0.56,0.346c-7.833,5.172-17.181,5.172-25.014,0
			c-0.187-0.123-0.377-0.241-0.573-0.352l-45.827-26.198h43.395c3.789,4.345,9.35,7.108,15.555,7.108
			c11.389,0,20.654-9.266,20.654-20.655c0-11.389-9.265-20.655-20.654-20.655c-8.799,0-16.31,5.541-19.281,13.309h-19.661
			c18.388-5.168,32.649-20.297,36.552-39.175h4.797c4.843,23.427,25.635,41.094,50.476,41.094c11.245,0,21.651-3.63,30.132-9.765
			C337.322,276.241,332.218,284.713,325.165,289.489z M308.934,255.577c-16.899,0-30.647-13.749-30.647-30.647
			c0-5.77-4.678-10.447-10.447-10.447h-23.562c-5.769,0-10.447,4.677-10.447,10.447c0,16.899-13.748,30.647-30.647,30.647
			s-30.647-13.749-30.647-30.647c0-16.898,13.748-30.647,30.647-30.647h105.75c16.899,0,30.647,13.749,30.647,30.647
			C339.58,241.829,325.833,255.577,308.934,255.577z M189.267,274.552h-14.11c-0.991-2.503-1.751-5.162-2.235-7.938
			C177.797,270.163,183.316,272.877,189.267,274.552z M256.192,85.242c37.833,0,69.842,25.335,80.005,59.924h-160.01
			C186.35,110.577,218.358,85.242,256.192,85.242z M172.435,171.386c0.239-0.878,0.368-1.802,0.368-2.756
			c0-0.863,0.04-1.716,0.066-2.572h166.647c0.026,0.857,0.066,1.71,0.066,2.572v14.891c-8.572-6.361-19.177-10.131-30.647-10.131
			h-105.75c-11.515,0-22.159,3.797-30.75,10.204V171.386z M163.149,295.445c3.46,4.583,7.579,8.547,12.272,11.646
			c0.187,0.123,0.377,0.24,0.573,0.352l27.463,15.7v16.218c0,2.59-1.545,4.907-3.935,5.903l-50.47,21.029l0.002-49.152
			l-0.009-21.696H163.149z M388.718,490.946h-265.42v-70.635c0-11.774,7.32-23.704,17.027-27.749l67.232-28.013
			c10.201-4.252,16.792-14.138,16.792-25.189v-4.274l7.938,4.538c7.332,4.763,15.527,7.143,23.722,7.143
			c8.197,0,16.394-2.383,23.728-7.148l7.93-4.547v4.287c0,11.052,6.592,20.939,16.793,25.19l67.232,28.012
			c9.706,4.044,17.026,15.974,17.026,27.749V490.946z"/>
	</g>
</g>
</svg>