<?xml version="1.0" encoding="UTF-8" standalone="no"?>
<svg
   width="117"
   height="30"
   viewBox="0 0 117 30"
   fill="none"
   version="1.1"
   id="svg7"
   sodipodi:docname="logo.svg"
   inkscape:version="1.3.2 (091e20e, 2023-11-25, custom)"
   xmlns:inkscape="http://www.inkscape.org/namespaces/inkscape"
   xmlns:sodipodi="http://sodipodi.sourceforge.net/DTD/sodipodi-0.dtd"
   xmlns="http://www.w3.org/2000/svg"
   xmlns:svg="http://www.w3.org/2000/svg">
  <defs
     id="defs7">
    <clipPath
       clipPathUnits="userSpaceOnUse"
       id="clipPath3">
      <path
         d="M 0,800 H 800 V 0 H 0 Z"
         transform="translate(-392.82081,-369.84651)"
         id="path3" />
    </clipPath>
    <clipPath
       clipPathUnits="userSpaceOnUse"
       id="clipPath5">
      <path
         d="M 0,800 H 800 V 0 H 0 Z"
         transform="translate(-617.72852,-416.37581)"
         id="path5" />
    </clipPath>
    <clipPath
       clipPathUnits="userSpaceOnUse"
       id="clipPath7">
      <path
         d="M 0,800 H 800 V 0 H 0 Z"
         transform="translate(-324.26401,-378.55071)"
         id="path7" />
    </clipPath>
    <clipPath
       clipPathUnits="userSpaceOnUse"
       id="clipPath9">
      <path
         d="M 0,800 H 800 V 0 H 0 Z"
         transform="translate(-479.00201,-387.25491)"
         id="path9" />
    </clipPath>
    <clipPath
       clipPathUnits="userSpaceOnUse"
       id="clipPath11">
      <path
         d="M 0,800 H 800 V 0 H 0 Z"
         transform="translate(-559.70122,-370.70621)"
         id="path11" />
    </clipPath>
    <clipPath
       clipPathUnits="userSpaceOnUse"
       id="clipPath13">
      <path
         d="M 0,800 H 800 V 0 H 0 Z"
         transform="translate(-488.64651,-441.49261)"
         id="path13" />
    </clipPath>
    <clipPath
       clipPathUnits="userSpaceOnUse"
       id="clipPath15">
      <path
         d="M 0,800 H 800 V 0 H 0 Z"
         transform="translate(-235.61271,-389.18871)"
         id="path15" />
    </clipPath>
  </defs>
  <sodipodi:namedview
     id="namedview7"
     pagecolor="#ffffff"
     bordercolor="#000000"
     borderopacity="0.25"
     inkscape:showpageshadow="2"
     inkscape:pageopacity="0.0"
     inkscape:pagecheckerboard="0"
     inkscape:deskcolor="#d1d1d1"
     showgrid="false"
     inkscape:zoom="5.6115269"
     inkscape:cx="72.885688"
     inkscape:cy="22.364679"
     inkscape:window-width="2560"
     inkscape:window-height="1369"
     inkscape:window-x="1592"
     inkscape:window-y="-8"
     inkscape:window-maximized="1"
     inkscape:current-layer="svg7" />
  <path
     id="path1"
     d="m 5.0577983,22.826387 h 3.92272 V 17.771275 H 15.673245 V 14.495849 H 8.9805183 v -2.38596 H 16.380946 V 8.6724509 H 5.0577983 Z"
     style="fill:#ffffff;fill-opacity:1;fill-rule:nonzero;stroke:none;stroke-width:0.188166" />
  <path
     id="path2"
     d="m 0,0 h 14.829 v -9.133 c -3.163,-2.08 -7.188,-3.117 -12.075,-3.117 -3.019,0 -5.77,0.519 -8.248,1.558 -2.48,1.037 -4.635,2.471 -6.469,4.298 -1.834,1.827 -3.253,4.03 -4.258,6.609 -1.008,2.579 -1.509,5.373 -1.509,8.382 v 0.215 c 0,2.864 0.5,5.551 1.504,8.059 1.002,2.507 2.364,4.691 4.083,6.555 1.72,1.862 3.743,3.331 6.072,4.406 2.326,1.074 4.852,1.611 7.575,1.611 3.724,0 7.002,-0.609 9.832,-1.827 2.829,-1.218 5.605,-2.973 8.328,-5.265 l 12.251,14.721 c -4.013,3.439 -8.436,6.126 -13.271,8.06 -4.836,1.935 -10.585,2.901 -17.247,2.901 -5.803,0 -11.191,-1.004 -16.161,-3.008 -4.971,-2.007 -9.24,-4.782 -12.803,-8.328 -3.564,-3.546 -6.361,-7.702 -8.392,-12.465 -2.032,-4.766 -3.048,-9.869 -3.048,-15.313 V 8.704 c 0,-5.732 1.038,-10.979 3.116,-15.742 2.077,-4.766 4.943,-8.865 8.596,-12.304 3.654,-3.439 7.969,-6.109 12.949,-8.006 4.979,-1.897 10.405,-2.848 16.28,-2.848 6.878,0 13.038,1.112 18.483,3.332 5.443,2.219 10.171,4.978 14.184,8.274 V 15.259 H 0 Z"
     style="fill:#ffffff;fill-opacity:1;fill-rule:nonzero;stroke:none"
     transform="matrix(0.18816718,0,0,-0.18816718,56.355366,17.427663)"
     clip-path="url(#clipPath3)" />
  <path
     id="path4"
     d="m 0,0 v -75.22 h 20.524 v 41.263 L 52.723,-75.22 H 71.029 V 0 H 50.505 V -39.76 L 19.491,0 Z"
     style="fill:#ffffff;fill-opacity:1;fill-rule:nonzero;stroke:none"
     transform="matrix(0.18816718,0,0,-0.18816718,98.675616,8.6723749)"
     clip-path="url(#clipPath5)" />
  <path
     id="path6"
     d="m 0,0 c 0,-2.724 -0.469,-5.302 -1.402,-7.737 -0.933,-2.436 -2.226,-4.567 -3.879,-6.394 -1.651,-1.827 -3.663,-3.277 -6.034,-4.352 -2.371,-1.075 -4.993,-1.612 -7.866,-1.612 -2.875,0 -5.496,0.554 -7.866,1.666 -2.371,1.11 -4.402,2.596 -6.089,4.459 -1.689,1.862 -3,4.011 -3.933,6.448 -0.934,2.434 -1.401,5.013 -1.401,7.736 V 0.43 c 0,2.721 0.448,5.3 1.347,7.737 0.896,2.434 2.189,4.566 3.878,6.393 1.689,1.827 3.701,3.278 6.036,4.352 2.334,1.075 4.938,1.612 7.813,1.612 2.873,0 5.495,-0.555 7.866,-1.665 2.371,-1.112 4.418,-2.598 6.142,-4.46 1.723,-1.863 3.053,-4.013 3.986,-6.447 C -0.469,5.516 0,2.937 0,0.214 Z m 9.778,27.939 c -3.583,3.509 -7.844,6.286 -12.787,8.328 -4.943,2.041 -10.316,3.062 -16.118,3.062 -5.803,0 -11.176,-1.021 -16.119,-3.062 -4.944,-2.042 -9.241,-4.836 -12.895,-8.382 -3.654,-3.546 -6.501,-7.702 -8.543,-12.465 -2.042,-4.765 -3.062,-9.832 -3.062,-15.206 V 0 c 0,-5.373 1.02,-10.423 3.062,-15.152 2.042,-4.728 4.853,-8.848 8.435,-12.357 3.582,-3.511 7.845,-6.286 12.788,-8.328 4.943,-2.042 10.316,-3.063 16.118,-3.063 5.804,0 11.176,1.021 16.119,3.063 4.943,2.042 9.241,4.835 12.895,8.381 3.654,3.547 6.502,7.701 8.543,12.466 2.041,4.763 3.062,9.832 3.062,15.204 V 0.43 c 0,5.372 -1.021,10.423 -3.062,15.151 -2.041,4.728 -4.854,8.847 -8.436,12.358"
     style="fill:#ffffff;fill-opacity:1;fill-rule:nonzero;stroke:none"
     transform="matrix(0.18816718,0,0,-0.18816718,43.455226,15.789818)"
     clip-path="url(#clipPath7)" />
  <path
     id="path8"
     d="M 0,0 -17.946,29.121 H -39.974 V -46.1 h 20.524 v 42.984 l 19.074,-29.229 h 0.43 l 19.18,29.443 V -46.1 h 20.74 V 29.121 H 17.945 Z"
     style="fill:#ffffff;fill-opacity:1;fill-rule:nonzero;stroke:none"
     transform="matrix(0.18816718,0,0,-0.18816718,72.571846,14.151973)"
     clip-path="url(#clipPath9)" />
  <path
     id="path10"
     d="M 0,0 8.489,21.384 16.871,0 Z m -1.397,46.207 -32.022,-75.758 h 21.921 l 5.373,13.433 h 29.013 l 5.481,-13.433 H 50.72 L 18.698,46.207 Z"
     style="fill:#ffffff;fill-opacity:1;fill-rule:nonzero;stroke:none"
     transform="matrix(0.18816718,0,0,-0.18816718,87.756786,17.265895)"
     clip-path="url(#clipPath11)" />
  <path
     id="path12"
     d="M 0,0 H -6.011 L -9.164,-5.117 -9.645,-5.898 -10.126,-5.117 -13.279,0 h -6.011 -45.194 -10.764 v -0.768 c -5.907,1.51 -12.329,2.272 -19.181,2.272 -9.073,0 -17.737,-1.639 -25.751,-4.87 -7.069,-2.854 -13.398,-6.76 -18.859,-11.636 -5.408,4.779 -11.64,8.641 -18.57,11.503 -8.04,3.32 -16.753,5.003 -25.901,5.003 -9.149,0 -17.863,-1.683 -25.902,-5.003 -5.479,-2.263 -10.537,-5.158 -15.111,-8.643 -4.43,3.578 -9.582,6.428 -15.377,8.499 C -246.765,-1.192 -254.4,0 -263.243,0 h -30.159 -20.274 -69.632 -10.764 v -10.764 -104.951 -10.764 h 10.764 50.577 10.764 8.291 50.577 10.764 50.914 3.128 c 4.708,-1 9.582,-1.505 14.568,-1.505 9.149,0 17.865,1.684 25.903,5.004 6.907,2.853 13.147,6.711 18.59,11.49 5.773,-5.101 12.47,-9.122 19.934,-11.966 7.881,-3.004 16.43,-4.528 25.406,-4.528 6.526,0 12.764,0.724 18.644,2.158 v -0.653 h 10.764 50.254 10.765 18.678 29.981 24.426 7.288 l 2.62,6.549 2.672,-6.549 h 7.234 24.783 29.98 20.274 10.764 39.741 10.764 V -115.715 -10.764 0 h -10.764 -50.254 -3.636 -5.255 -41.614 z m -94.429,-9.26 c 8.532,0 16.192,-1.334 22.768,-3.965 2.467,-0.987 4.861,-2.135 7.177,-3.428 v 5.889 H -19.29 L -9.645,-26.416 0,-10.764 h 45.194 v -34.024 l 14.609,34.561 h 39.804 l 14.61,-34.563 v 34.026 h 41.614 l 8.891,-11.399 v 11.399 h 50.254 v -104.951 h -40.427 l -10.078,12.915 v -12.915 h -20.274 -29.98 -24.783 l -5.481,13.433 H 74.994 L 69.62,-115.715 H 45.194 15.213 -5.275 v 13.754 h -8.955 v -13.754 h -50.254 v 5.334 c -1.717,-0.856 -3.485,-1.661 -5.312,-2.406 -7.212,-2.941 -15.319,-4.432 -24.096,-4.432 -7.661,0 -14.92,1.286 -21.574,3.823 -6.776,2.581 -12.78,6.306 -17.842,11.071 -2.15,2.023 -4.1,4.228 -5.866,6.584 -1.577,-2.064 -3.306,-4.013 -5.184,-5.836 -4.993,-4.846 -10.906,-8.7 -17.574,-11.454 -6.728,-2.779 -14.061,-4.188 -21.793,-4.188 -4.052,0 -7.994,0.388 -11.797,1.158 -2.374,0.48 -2.263,0.346 -2.263,0.346 h -63.86 -1.454 -50.577 v 26.865 h -19.055 v -26.865 h -50.577 v 104.951 h 69.632 20.274 30.159 c 7.588,0 14.039,-0.987 19.721,-3.016 6.074,-2.17 11.212,-5.363 15.279,-9.492 1.086,-1.065 2.213,-2.31 3.313,-3.747 0.665,0.722 1.347,1.43 2.054,2.117 4.993,4.846 10.905,8.7 17.572,11.454 6.73,2.779 14.062,4.188 21.794,4.188 7.731,0 15.063,-1.409 21.792,-4.188 6.685,-2.761 12.577,-6.612 17.514,-11.447 1.888,-1.85 3.625,-3.832 5.209,-5.932 1.558,2.089 3.266,4.06 5.118,5.903 4.959,4.935 10.922,8.829 17.723,11.574 6.73,2.715 14.038,4.09 21.725,4.09"
     style="fill:#ffffff;fill-opacity:1;fill-rule:nonzero;stroke:none"
     transform="matrix(0.18816718,0,0,-0.18816718,74.386626,3.9462179)"
     clip-path="url(#clipPath13)" />
  <path
     id="path14"
     d="m 0,0 c 0,-2.723 -0.967,-4.889 -2.902,-6.501 -1.934,-1.612 -4.692,-2.418 -8.274,-2.418 H -24.93 V 9.134 h 13.647 c 3.509,0 6.267,-0.736 8.274,-2.203 C -1.004,5.462 0,3.224 0,0.215 Z m 16.763,-13.11 c 2.794,3.797 4.191,8.597 4.191,14.4 v 0.214 c 0,7.378 -2.222,13.218 -6.663,17.516 -2.508,2.579 -5.767,4.584 -9.778,6.017 -4.013,1.433 -8.919,2.15 -14.722,2.15 h -35.568 v -75.22 h 20.847 v 22.781 h 8.919 0.214 L -0.645,-48.033 H 23.426 L 5.48,-21.814 c 4.728,2.005 8.489,4.907 11.283,8.704"
     style="fill:#ffffff;fill-opacity:1;fill-rule:nonzero;stroke:none"
     transform="matrix(0.18816718,0,0,-0.18816718,26.773966,13.788095)"
     clip-path="url(#clipPath15)" />
</svg>
